<svg width="32" height="32" viewBox="0 0 32 32" fill="none" xmlns="http://www.w3.org/2000/svg">
<g clip-path="url(#clip0_7_2)">
<path d="M16 20.5C17.864 20.5 19.375 18.989 19.375 17.125C19.375 15.261 17.864 13.75 16 13.75C14.136 13.75 12.625 15.261 12.625 17.125C12.625 18.989 14.136 20.5 16 20.5Z" stroke="#A4B1CD" stroke-width="1.2" stroke-linecap="round" stroke-linejoin="round"/>
<path fill-rule="evenodd" clip-rule="evenodd" d="M22 27.25C21.596 24.2453 19.0317 22.0028 16 22.0028C12.9683 22.0028 10.404 24.2453 10 27.25H22Z" stroke="#A4B1CD" stroke-width="1.2" stroke-linecap="round" stroke-linejoin="round"/>
<path d="M5.5 4.75H6.25C6.66421 4.75 7 5.08579 7 5.5V10.75" stroke="#A4B1CD" stroke-width="1.2" stroke-linecap="round" stroke-linejoin="round"/>
<path d="M5.5 10.75H8.5" stroke="#A4B1CD" stroke-width="1.2" stroke-linecap="round" stroke-linejoin="round"/>
<path d="M5.5 22.75H6.25C6.66421 22.75 7 23.0858 7 23.5V27.25" stroke="#A4B1CD" stroke-width="1.2" stroke-linecap="round" stroke-linejoin="round"/>
<path d="M23.5 22.75H24.25C24.6642 22.75 25 23.0858 25 23.5V27.25" stroke="#A4B1CD" stroke-width="1.2" stroke-linecap="round" stroke-linejoin="round"/>
<path fill-rule="evenodd" clip-rule="evenodd" d="M14.5 9.25C14.5 10.0784 13.8284 10.75 13 10.75C12.1716 10.75 11.5 10.0784 11.5 9.25V6.25C11.5 5.42157 12.1716 4.75 13 4.75C13.8284 4.75 14.5 5.42157 14.5 6.25V9.25Z" stroke="#A4B1CD" stroke-width="1.2" stroke-linecap="round" stroke-linejoin="round"/>
<path fill-rule="evenodd" clip-rule="evenodd" d="M8.5 18.25C8.5 19.0784 7.82843 19.75 7 19.75C6.17157 19.75 5.5 19.0784 5.5 18.25V15.25C5.5 14.4216 6.17157 13.75 7 13.75C7.82843 13.75 8.5 14.4216 8.5 15.25V18.25Z" stroke="#A4B1CD" stroke-width="1.2" stroke-linecap="round" stroke-linejoin="round"/>
<path d="M23.5 4.75H24.25C24.6642 4.75 25 5.08579 25 5.5V10.75" stroke="#A4B1CD" stroke-width="1.2" stroke-linecap="round" stroke-linejoin="round"/>
<path d="M23.5 10.75H26.5" stroke="#A4B1CD" stroke-width="1.2" stroke-linecap="round" stroke-linejoin="round"/>
<path fill-rule="evenodd" clip-rule="evenodd" d="M20.5 9.25C20.5 10.0784 19.8284 10.75 19 10.75C18.1716 10.75 17.5 10.0784 17.5 9.25V6.25C17.5 5.42157 18.1716 4.75 19 4.75C19.8284 4.75 20.5 5.42157 20.5 6.25V9.25Z" stroke="#A4B1CD" stroke-width="1.2" stroke-linecap="round" stroke-linejoin="round"/>
<path fill-rule="evenodd" clip-rule="evenodd" d="M26.5 18.25C26.5 19.0784 25.8284 19.75 25 19.75C24.1716 19.75 23.5 19.0784 23.5 18.25V15.25C23.5 14.4216 24.1716 13.75 25 13.75C25.8284 13.75 26.5 14.4216 26.5 15.25V18.25Z" stroke="#A4B1CD" stroke-width="1.2" stroke-linecap="round" stroke-linejoin="round"/>
</g>
<defs>
<clipPath id="clip0_7_2">
<rect width="24" height="24" fill="white" transform="translate(4 4)"/>
</clipPath>
</defs>
</svg>
